%TF.GenerationSoftware,KiCad,Pcbnew,10.0.4*%
%TF.CreationDate,2026-06-25T22:27:14-05:00*%
%TF.ProjectId,radio-mic-usb-ptt,72616469-6f2d-46d6-9963-2d7573622d70,rev?*%
%TF.SameCoordinates,Original*%
%TF.FileFunction,Soldermask,Top*%
%TF.FilePolarity,Negative*%
%FSLAX46Y46*%
G04 Gerber Fmt 4.6, Leading zero omitted, Abs format (unit mm)*
G04 Created by KiCad (PCBNEW 10.0.4) date 2026-06-25 22:27:14*
%MOMM*%
%LPD*%
G01*
G04 APERTURE LIST*
G04 Aperture macros list*
%AMRoundRect*
0 Rectangle with rounded corners*
0 $1 Rounding radius*
0 $2 $3 $4 $5 $6 $7 $8 $9 X,Y pos of 4 corners*
0 Add a 4 corners polygon primitive as box body*
4,1,4,$2,$3,$4,$5,$6,$7,$8,$9,$2,$3,0*
0 Add four circle primitives for the rounded corners*
1,1,$1+$1,$2,$3*
1,1,$1+$1,$4,$5*
1,1,$1+$1,$6,$7*
1,1,$1+$1,$8,$9*
0 Add four rect primitives between the rounded corners*
20,1,$1+$1,$2,$3,$4,$5,0*
20,1,$1+$1,$4,$5,$6,$7,0*
20,1,$1+$1,$6,$7,$8,$9,0*
20,1,$1+$1,$8,$9,$2,$3,0*%
G04 Aperture macros list end*
%ADD10RoundRect,0.200000X-0.200000X-0.275000X0.200000X-0.275000X0.200000X0.275000X-0.200000X0.275000X0*%
%ADD11C,3.200000*%
%ADD12RoundRect,0.200000X0.275000X-0.200000X0.275000X0.200000X-0.275000X0.200000X-0.275000X-0.200000X0*%
%ADD13C,3.250000*%
%ADD14R,1.500000X1.500000*%
%ADD15C,1.500000*%
%ADD16C,2.300000*%
%ADD17RoundRect,0.500000X-0.875000X-0.500000X0.875000X-0.500000X0.875000X0.500000X-0.875000X0.500000X0*%
%ADD18R,1.000000X0.400000*%
G04 APERTURE END LIST*
D10*
%TO.C,R11*%
X55200000Y-28000000D03*
X56800000Y-28000000D03*
%TD*%
%TO.C,R1*%
X20200000Y-32000000D03*
X21800000Y-32000000D03*
%TD*%
D11*
%TO.C,H4*%
X67000000Y-37000000D03*
%TD*%
D12*
%TO.C,R7*%
X30000000Y-11200000D03*
X30000000Y-12800000D03*
%TD*%
D11*
%TO.C,H2*%
X67000000Y-5000000D03*
%TD*%
D12*
%TO.C,C2*%
X40000000Y-18200000D03*
X40000000Y-19800000D03*
%TD*%
D11*
%TO.C,H3*%
X5000000Y-37000000D03*
%TD*%
D13*
%TO.C,J1*%
X4210000Y-18460000D03*
X16910000Y-18460000D03*
D14*
X7000000Y-21000000D03*
D15*
X8016000Y-22780000D03*
X9032000Y-21000000D03*
X10048000Y-22780000D03*
X11064000Y-21000000D03*
X12080000Y-22780000D03*
X13096000Y-21000000D03*
X14112000Y-22780000D03*
D16*
X2430000Y-21890000D03*
X18690000Y-21890000D03*
%TD*%
D10*
%TO.C,C1*%
X26200000Y-34000000D03*
X27800000Y-34000000D03*
%TD*%
D12*
%TO.C,C5*%
X37000000Y-24200000D03*
X37000000Y-25800000D03*
%TD*%
D10*
%TO.C,R13*%
X24200000Y-24000000D03*
X25800000Y-24000000D03*
%TD*%
D17*
%TO.C,U1*%
X46835000Y-4380000D03*
X46835000Y-6920000D03*
X46835000Y-9460000D03*
X46835000Y-12000000D03*
X46835000Y-14540000D03*
X46835000Y-17080000D03*
X46835000Y-19620000D03*
X63000000Y-19620000D03*
X63000000Y-17080000D03*
X63000000Y-14540000D03*
X63000000Y-12000000D03*
X63000000Y-9460000D03*
X63000000Y-6920000D03*
X63000000Y-4380000D03*
%TD*%
D12*
%TO.C,R2*%
X36000000Y-15200000D03*
X36000000Y-16800000D03*
%TD*%
D10*
%TO.C,R8*%
X21200000Y-10000000D03*
X22800000Y-10000000D03*
%TD*%
%TO.C,R5*%
X26200000Y-19000000D03*
X27800000Y-19000000D03*
%TD*%
D12*
%TO.C,C4*%
X25000000Y-12200000D03*
X25000000Y-13800000D03*
%TD*%
%TO.C,R3*%
X36000000Y-18200000D03*
X36000000Y-19800000D03*
%TD*%
D10*
%TO.C,R6*%
X37200000Y-11000000D03*
X38800000Y-11000000D03*
%TD*%
D11*
%TO.C,H1*%
X5000000Y-5000000D03*
%TD*%
D18*
%TO.C,U2*%
X29250000Y-21025000D03*
X29250000Y-21675000D03*
X29250000Y-22325000D03*
X29250000Y-22975000D03*
X32750000Y-22975000D03*
X32750000Y-22325000D03*
X32750000Y-21675000D03*
X32750000Y-21025000D03*
%TD*%
D10*
%TO.C,D1*%
X59200000Y-28000000D03*
X60800000Y-28000000D03*
%TD*%
%TO.C,R4*%
X26200000Y-27000000D03*
X27800000Y-27000000D03*
%TD*%
D12*
%TO.C,C3*%
X42000000Y-10200000D03*
X42000000Y-11800000D03*
%TD*%
M02*
