%TF.GenerationSoftware,KiCad,Pcbnew,10.0.4*%
%TF.CreationDate,2026-06-25T22:27:14-05:00*%
%TF.ProjectId,radio-mic-usb-ptt,72616469-6f2d-46d6-9963-2d7573622d70,rev?*%
%TF.SameCoordinates,Original*%
%TF.FileFunction,Legend,Top*%
%TF.FilePolarity,Positive*%
%FSLAX46Y46*%
G04 Gerber Fmt 4.6, Leading zero omitted, Abs format (unit mm)*
G04 Created by KiCad (PCBNEW 10.0.4) date 2026-06-25 22:27:14*
%MOMM*%
%LPD*%
G01*
G04 APERTURE LIST*
%ADD10C,0.150000*%
G04 APERTURE END LIST*
D10*
X4285714Y-10454819D02*
X3952381Y-9978628D01*
X3714286Y-10454819D02*
X3714286Y-9454819D01*
X3714286Y-9454819D02*
X4095238Y-9454819D01*
X4095238Y-9454819D02*
X4190476Y-9502438D01*
X4190476Y-9502438D02*
X4238095Y-9550057D01*
X4238095Y-9550057D02*
X4285714Y-9645295D01*
X4285714Y-9645295D02*
X4285714Y-9788152D01*
X4285714Y-9788152D02*
X4238095Y-9883390D01*
X4238095Y-9883390D02*
X4190476Y-9931009D01*
X4190476Y-9931009D02*
X4095238Y-9978628D01*
X4095238Y-9978628D02*
X3714286Y-9978628D01*
X5000000Y-9454819D02*
X5000000Y-10169104D01*
X5000000Y-10169104D02*
X4952381Y-10311961D01*
X4952381Y-10311961D02*
X4857143Y-10407200D01*
X4857143Y-10407200D02*
X4714286Y-10454819D01*
X4714286Y-10454819D02*
X4619048Y-10454819D01*
X5904762Y-9788152D02*
X5904762Y-10454819D01*
X5666667Y-9407200D02*
X5428572Y-10121485D01*
X5428572Y-10121485D02*
X6047619Y-10121485D01*
X6904762Y-9454819D02*
X6428572Y-9454819D01*
X6428572Y-9454819D02*
X6380953Y-9931009D01*
X6380953Y-9931009D02*
X6428572Y-9883390D01*
X6428572Y-9883390D02*
X6523810Y-9835771D01*
X6523810Y-9835771D02*
X6761905Y-9835771D01*
X6761905Y-9835771D02*
X6857143Y-9883390D01*
X6857143Y-9883390D02*
X6904762Y-9931009D01*
X6904762Y-9931009D02*
X6952381Y-10026247D01*
X6952381Y-10026247D02*
X6952381Y-10264342D01*
X6952381Y-10264342D02*
X6904762Y-10359580D01*
X6904762Y-10359580D02*
X6857143Y-10407200D01*
X6857143Y-10407200D02*
X6761905Y-10454819D01*
X6761905Y-10454819D02*
X6523810Y-10454819D01*
X6523810Y-10454819D02*
X6428572Y-10407200D01*
X6428572Y-10407200D02*
X6380953Y-10359580D01*
X8142858Y-10454819D02*
X8142858Y-9454819D01*
X8142858Y-9454819D02*
X8476191Y-10169104D01*
X8476191Y-10169104D02*
X8809524Y-9454819D01*
X8809524Y-9454819D02*
X8809524Y-10454819D01*
X9285715Y-10454819D02*
X9285715Y-9454819D01*
X10333333Y-10359580D02*
X10285714Y-10407200D01*
X10285714Y-10407200D02*
X10142857Y-10454819D01*
X10142857Y-10454819D02*
X10047619Y-10454819D01*
X10047619Y-10454819D02*
X9904762Y-10407200D01*
X9904762Y-10407200D02*
X9809524Y-10311961D01*
X9809524Y-10311961D02*
X9761905Y-10216723D01*
X9761905Y-10216723D02*
X9714286Y-10026247D01*
X9714286Y-10026247D02*
X9714286Y-9883390D01*
X9714286Y-9883390D02*
X9761905Y-9692914D01*
X9761905Y-9692914D02*
X9809524Y-9597676D01*
X9809524Y-9597676D02*
X9904762Y-9502438D01*
X9904762Y-9502438D02*
X10047619Y-9454819D01*
X10047619Y-9454819D02*
X10142857Y-9454819D01*
X10142857Y-9454819D02*
X10285714Y-9502438D01*
X10285714Y-9502438D02*
X10333333Y-9550057D01*
X54000000Y-1654819D02*
X54000000Y-2464342D01*
X54000000Y-2464342D02*
X54047619Y-2559580D01*
X54047619Y-2559580D02*
X54095238Y-2607200D01*
X54095238Y-2607200D02*
X54190476Y-2654819D01*
X54190476Y-2654819D02*
X54380952Y-2654819D01*
X54380952Y-2654819D02*
X54476190Y-2607200D01*
X54476190Y-2607200D02*
X54523809Y-2559580D01*
X54523809Y-2559580D02*
X54571428Y-2464342D01*
X54571428Y-2464342D02*
X54571428Y-1654819D01*
X55000000Y-2607200D02*
X55142857Y-2654819D01*
X55142857Y-2654819D02*
X55380952Y-2654819D01*
X55380952Y-2654819D02*
X55476190Y-2607200D01*
X55476190Y-2607200D02*
X55523809Y-2559580D01*
X55523809Y-2559580D02*
X55571428Y-2464342D01*
X55571428Y-2464342D02*
X55571428Y-2369104D01*
X55571428Y-2369104D02*
X55523809Y-2273866D01*
X55523809Y-2273866D02*
X55476190Y-2226247D01*
X55476190Y-2226247D02*
X55380952Y-2178628D01*
X55380952Y-2178628D02*
X55190476Y-2131009D01*
X55190476Y-2131009D02*
X55095238Y-2083390D01*
X55095238Y-2083390D02*
X55047619Y-2035771D01*
X55047619Y-2035771D02*
X55000000Y-1940533D01*
X55000000Y-1940533D02*
X55000000Y-1845295D01*
X55000000Y-1845295D02*
X55047619Y-1750057D01*
X55047619Y-1750057D02*
X55095238Y-1702438D01*
X55095238Y-1702438D02*
X55190476Y-1654819D01*
X55190476Y-1654819D02*
X55428571Y-1654819D01*
X55428571Y-1654819D02*
X55571428Y-1702438D01*
X56333333Y-2131009D02*
X56476190Y-2178628D01*
X56476190Y-2178628D02*
X56523809Y-2226247D01*
X56523809Y-2226247D02*
X56571428Y-2321485D01*
X56571428Y-2321485D02*
X56571428Y-2464342D01*
X56571428Y-2464342D02*
X56523809Y-2559580D01*
X56523809Y-2559580D02*
X56476190Y-2607200D01*
X56476190Y-2607200D02*
X56380952Y-2654819D01*
X56380952Y-2654819D02*
X56000000Y-2654819D01*
X56000000Y-2654819D02*
X56000000Y-1654819D01*
X56000000Y-1654819D02*
X56333333Y-1654819D01*
X56333333Y-1654819D02*
X56428571Y-1702438D01*
X56428571Y-1702438D02*
X56476190Y-1750057D01*
X56476190Y-1750057D02*
X56523809Y-1845295D01*
X56523809Y-1845295D02*
X56523809Y-1940533D01*
X56523809Y-1940533D02*
X56476190Y-2035771D01*
X56476190Y-2035771D02*
X56428571Y-2083390D01*
X56428571Y-2083390D02*
X56333333Y-2131009D01*
X56333333Y-2131009D02*
X56000000Y-2131009D01*
X57000000Y-2273866D02*
X57761905Y-2273866D01*
X58809523Y-2559580D02*
X58761904Y-2607200D01*
X58761904Y-2607200D02*
X58619047Y-2654819D01*
X58619047Y-2654819D02*
X58523809Y-2654819D01*
X58523809Y-2654819D02*
X58380952Y-2607200D01*
X58380952Y-2607200D02*
X58285714Y-2511961D01*
X58285714Y-2511961D02*
X58238095Y-2416723D01*
X58238095Y-2416723D02*
X58190476Y-2226247D01*
X58190476Y-2226247D02*
X58190476Y-2083390D01*
X58190476Y-2083390D02*
X58238095Y-1892914D01*
X58238095Y-1892914D02*
X58285714Y-1797676D01*
X58285714Y-1797676D02*
X58380952Y-1702438D01*
X58380952Y-1702438D02*
X58523809Y-1654819D01*
X58523809Y-1654819D02*
X58619047Y-1654819D01*
X58619047Y-1654819D02*
X58761904Y-1702438D01*
X58761904Y-1702438D02*
X58809523Y-1750057D01*
X60000000Y-2273866D02*
X60761905Y-2273866D01*
X61238095Y-1988152D02*
X62000000Y-2273866D01*
X62000000Y-2273866D02*
X61238095Y-2559580D01*
X24828573Y-38547342D02*
X24828573Y-37747342D01*
X24828573Y-37975914D02*
X24885716Y-37861628D01*
X24885716Y-37861628D02*
X24942859Y-37804485D01*
X24942859Y-37804485D02*
X25057144Y-37747342D01*
X25057144Y-37747342D02*
X25171430Y-37747342D01*
X26085716Y-38547342D02*
X26085716Y-37918771D01*
X26085716Y-37918771D02*
X26028573Y-37804485D01*
X26028573Y-37804485D02*
X25914287Y-37747342D01*
X25914287Y-37747342D02*
X25685716Y-37747342D01*
X25685716Y-37747342D02*
X25571430Y-37804485D01*
X26085716Y-38490200D02*
X25971430Y-38547342D01*
X25971430Y-38547342D02*
X25685716Y-38547342D01*
X25685716Y-38547342D02*
X25571430Y-38490200D01*
X25571430Y-38490200D02*
X25514287Y-38375914D01*
X25514287Y-38375914D02*
X25514287Y-38261628D01*
X25514287Y-38261628D02*
X25571430Y-38147342D01*
X25571430Y-38147342D02*
X25685716Y-38090200D01*
X25685716Y-38090200D02*
X25971430Y-38090200D01*
X25971430Y-38090200D02*
X26085716Y-38033057D01*
X27171430Y-38547342D02*
X27171430Y-37347342D01*
X27171430Y-38490200D02*
X27057144Y-38547342D01*
X27057144Y-38547342D02*
X26828572Y-38547342D01*
X26828572Y-38547342D02*
X26714287Y-38490200D01*
X26714287Y-38490200D02*
X26657144Y-38433057D01*
X26657144Y-38433057D02*
X26600001Y-38318771D01*
X26600001Y-38318771D02*
X26600001Y-37975914D01*
X26600001Y-37975914D02*
X26657144Y-37861628D01*
X26657144Y-37861628D02*
X26714287Y-37804485D01*
X26714287Y-37804485D02*
X26828572Y-37747342D01*
X26828572Y-37747342D02*
X27057144Y-37747342D01*
X27057144Y-37747342D02*
X27171430Y-37804485D01*
X27742858Y-38547342D02*
X27742858Y-37747342D01*
X27742858Y-37347342D02*
X27685715Y-37404485D01*
X27685715Y-37404485D02*
X27742858Y-37461628D01*
X27742858Y-37461628D02*
X27800001Y-37404485D01*
X27800001Y-37404485D02*
X27742858Y-37347342D01*
X27742858Y-37347342D02*
X27742858Y-37461628D01*
X28485715Y-38547342D02*
X28371430Y-38490200D01*
X28371430Y-38490200D02*
X28314287Y-38433057D01*
X28314287Y-38433057D02*
X28257144Y-38318771D01*
X28257144Y-38318771D02*
X28257144Y-37975914D01*
X28257144Y-37975914D02*
X28314287Y-37861628D01*
X28314287Y-37861628D02*
X28371430Y-37804485D01*
X28371430Y-37804485D02*
X28485715Y-37747342D01*
X28485715Y-37747342D02*
X28657144Y-37747342D01*
X28657144Y-37747342D02*
X28771430Y-37804485D01*
X28771430Y-37804485D02*
X28828573Y-37861628D01*
X28828573Y-37861628D02*
X28885715Y-37975914D01*
X28885715Y-37975914D02*
X28885715Y-38318771D01*
X28885715Y-38318771D02*
X28828573Y-38433057D01*
X28828573Y-38433057D02*
X28771430Y-38490200D01*
X28771430Y-38490200D02*
X28657144Y-38547342D01*
X28657144Y-38547342D02*
X28485715Y-38547342D01*
X29400001Y-38090200D02*
X30314287Y-38090200D01*
X30885715Y-38547342D02*
X30885715Y-37747342D01*
X30885715Y-37861628D02*
X30942858Y-37804485D01*
X30942858Y-37804485D02*
X31057143Y-37747342D01*
X31057143Y-37747342D02*
X31228572Y-37747342D01*
X31228572Y-37747342D02*
X31342858Y-37804485D01*
X31342858Y-37804485D02*
X31400001Y-37918771D01*
X31400001Y-37918771D02*
X31400001Y-38547342D01*
X31400001Y-37918771D02*
X31457143Y-37804485D01*
X31457143Y-37804485D02*
X31571429Y-37747342D01*
X31571429Y-37747342D02*
X31742858Y-37747342D01*
X31742858Y-37747342D02*
X31857143Y-37804485D01*
X31857143Y-37804485D02*
X31914286Y-37918771D01*
X31914286Y-37918771D02*
X31914286Y-38547342D01*
X32485715Y-38547342D02*
X32485715Y-37747342D01*
X32485715Y-37347342D02*
X32428572Y-37404485D01*
X32428572Y-37404485D02*
X32485715Y-37461628D01*
X32485715Y-37461628D02*
X32542858Y-37404485D01*
X32542858Y-37404485D02*
X32485715Y-37347342D01*
X32485715Y-37347342D02*
X32485715Y-37461628D01*
X33571430Y-38490200D02*
X33457144Y-38547342D01*
X33457144Y-38547342D02*
X33228572Y-38547342D01*
X33228572Y-38547342D02*
X33114287Y-38490200D01*
X33114287Y-38490200D02*
X33057144Y-38433057D01*
X33057144Y-38433057D02*
X33000001Y-38318771D01*
X33000001Y-38318771D02*
X33000001Y-37975914D01*
X33000001Y-37975914D02*
X33057144Y-37861628D01*
X33057144Y-37861628D02*
X33114287Y-37804485D01*
X33114287Y-37804485D02*
X33228572Y-37747342D01*
X33228572Y-37747342D02*
X33457144Y-37747342D01*
X33457144Y-37747342D02*
X33571430Y-37804485D01*
X34085715Y-38090200D02*
X35000001Y-38090200D01*
X36085715Y-37747342D02*
X36085715Y-38547342D01*
X35571429Y-37747342D02*
X35571429Y-38375914D01*
X35571429Y-38375914D02*
X35628572Y-38490200D01*
X35628572Y-38490200D02*
X35742857Y-38547342D01*
X35742857Y-38547342D02*
X35914286Y-38547342D01*
X35914286Y-38547342D02*
X36028572Y-38490200D01*
X36028572Y-38490200D02*
X36085715Y-38433057D01*
X36600000Y-38490200D02*
X36714286Y-38547342D01*
X36714286Y-38547342D02*
X36942857Y-38547342D01*
X36942857Y-38547342D02*
X37057143Y-38490200D01*
X37057143Y-38490200D02*
X37114286Y-38375914D01*
X37114286Y-38375914D02*
X37114286Y-38318771D01*
X37114286Y-38318771D02*
X37057143Y-38204485D01*
X37057143Y-38204485D02*
X36942857Y-38147342D01*
X36942857Y-38147342D02*
X36771429Y-38147342D01*
X36771429Y-38147342D02*
X36657143Y-38090200D01*
X36657143Y-38090200D02*
X36600000Y-37975914D01*
X36600000Y-37975914D02*
X36600000Y-37918771D01*
X36600000Y-37918771D02*
X36657143Y-37804485D01*
X36657143Y-37804485D02*
X36771429Y-37747342D01*
X36771429Y-37747342D02*
X36942857Y-37747342D01*
X36942857Y-37747342D02*
X37057143Y-37804485D01*
X37628572Y-38547342D02*
X37628572Y-37347342D01*
X37628572Y-37804485D02*
X37742858Y-37747342D01*
X37742858Y-37747342D02*
X37971429Y-37747342D01*
X37971429Y-37747342D02*
X38085715Y-37804485D01*
X38085715Y-37804485D02*
X38142858Y-37861628D01*
X38142858Y-37861628D02*
X38200000Y-37975914D01*
X38200000Y-37975914D02*
X38200000Y-38318771D01*
X38200000Y-38318771D02*
X38142858Y-38433057D01*
X38142858Y-38433057D02*
X38085715Y-38490200D01*
X38085715Y-38490200D02*
X37971429Y-38547342D01*
X37971429Y-38547342D02*
X37742858Y-38547342D01*
X37742858Y-38547342D02*
X37628572Y-38490200D01*
X38714286Y-38090200D02*
X39628572Y-38090200D01*
X40200000Y-37747342D02*
X40200000Y-38947342D01*
X40200000Y-37804485D02*
X40314286Y-37747342D01*
X40314286Y-37747342D02*
X40542857Y-37747342D01*
X40542857Y-37747342D02*
X40657143Y-37804485D01*
X40657143Y-37804485D02*
X40714286Y-37861628D01*
X40714286Y-37861628D02*
X40771428Y-37975914D01*
X40771428Y-37975914D02*
X40771428Y-38318771D01*
X40771428Y-38318771D02*
X40714286Y-38433057D01*
X40714286Y-38433057D02*
X40657143Y-38490200D01*
X40657143Y-38490200D02*
X40542857Y-38547342D01*
X40542857Y-38547342D02*
X40314286Y-38547342D01*
X40314286Y-38547342D02*
X40200000Y-38490200D01*
X41114285Y-37747342D02*
X41571428Y-37747342D01*
X41285714Y-37347342D02*
X41285714Y-38375914D01*
X41285714Y-38375914D02*
X41342857Y-38490200D01*
X41342857Y-38490200D02*
X41457142Y-38547342D01*
X41457142Y-38547342D02*
X41571428Y-38547342D01*
X41799999Y-37747342D02*
X42257142Y-37747342D01*
X41971428Y-37347342D02*
X41971428Y-38375914D01*
X41971428Y-38375914D02*
X42028571Y-38490200D01*
X42028571Y-38490200D02*
X42142856Y-38547342D01*
X42142856Y-38547342D02*
X42257142Y-38547342D01*
X44257142Y-38547342D02*
X43857142Y-37975914D01*
X43571428Y-38547342D02*
X43571428Y-37347342D01*
X43571428Y-37347342D02*
X44028571Y-37347342D01*
X44028571Y-37347342D02*
X44142856Y-37404485D01*
X44142856Y-37404485D02*
X44199999Y-37461628D01*
X44199999Y-37461628D02*
X44257142Y-37575914D01*
X44257142Y-37575914D02*
X44257142Y-37747342D01*
X44257142Y-37747342D02*
X44199999Y-37861628D01*
X44199999Y-37861628D02*
X44142856Y-37918771D01*
X44142856Y-37918771D02*
X44028571Y-37975914D01*
X44028571Y-37975914D02*
X43571428Y-37975914D01*
X45228571Y-38490200D02*
X45114285Y-38547342D01*
X45114285Y-38547342D02*
X44885714Y-38547342D01*
X44885714Y-38547342D02*
X44771428Y-38490200D01*
X44771428Y-38490200D02*
X44714285Y-38375914D01*
X44714285Y-38375914D02*
X44714285Y-37918771D01*
X44714285Y-37918771D02*
X44771428Y-37804485D01*
X44771428Y-37804485D02*
X44885714Y-37747342D01*
X44885714Y-37747342D02*
X45114285Y-37747342D01*
X45114285Y-37747342D02*
X45228571Y-37804485D01*
X45228571Y-37804485D02*
X45285714Y-37918771D01*
X45285714Y-37918771D02*
X45285714Y-38033057D01*
X45285714Y-38033057D02*
X44714285Y-38147342D01*
X45685713Y-37747342D02*
X45971427Y-38547342D01*
X45971427Y-38547342D02*
X46257142Y-37747342D01*
X46657142Y-38204485D02*
X47228571Y-38204485D01*
X46542856Y-38547342D02*
X46942856Y-37347342D01*
X46942856Y-37347342D02*
X47342856Y-38547342D01*
M02*
