%TF.GenerationSoftware,KiCad,Pcbnew,10.0.4*%
%TF.CreationDate,2026-06-25T22:27:14-05:00*%
%TF.ProjectId,radio-mic-usb-ptt,72616469-6f2d-46d6-9963-2d7573622d70,rev?*%
%TF.SameCoordinates,Original*%
%TF.FileFunction,Copper,L1,Top*%
%TF.FilePolarity,Positive*%
%FSLAX46Y46*%
G04 Gerber Fmt 4.6, Leading zero omitted, Abs format (unit mm)*
G04 Created by KiCad (PCBNEW 10.0.4) date 2026-06-25 22:27:14*
%MOMM*%
%LPD*%
G01*
G04 APERTURE LIST*
G04 Aperture macros list*
%AMRoundRect*
0 Rectangle with rounded corners*
0 $1 Rounding radius*
0 $2 $3 $4 $5 $6 $7 $8 $9 X,Y pos of 4 corners*
0 Add a 4 corners polygon primitive as box body*
4,1,4,$2,$3,$4,$5,$6,$7,$8,$9,$2,$3,0*
0 Add four circle primitives for the rounded corners*
1,1,$1+$1,$2,$3*
1,1,$1+$1,$4,$5*
1,1,$1+$1,$6,$7*
1,1,$1+$1,$8,$9*
0 Add four rect primitives between the rounded corners*
20,1,$1+$1,$2,$3,$4,$5,0*
20,1,$1+$1,$4,$5,$6,$7,0*
20,1,$1+$1,$6,$7,$8,$9,0*
20,1,$1+$1,$8,$9,$2,$3,0*%
G04 Aperture macros list end*
%TA.AperFunction,SMDPad,CuDef*%
%ADD10RoundRect,0.200000X-0.200000X-0.275000X0.200000X-0.275000X0.200000X0.275000X-0.200000X0.275000X0*%
%TD*%
%TA.AperFunction,SMDPad,CuDef*%
%ADD11RoundRect,0.200000X0.275000X-0.200000X0.275000X0.200000X-0.275000X0.200000X-0.275000X-0.200000X0*%
%TD*%
%TA.AperFunction,ComponentPad*%
%ADD12R,1.500000X1.500000*%
%TD*%
%TA.AperFunction,ComponentPad*%
%ADD13C,1.500000*%
%TD*%
%TA.AperFunction,ComponentPad*%
%ADD14C,2.300000*%
%TD*%
%TA.AperFunction,SMDPad,CuDef*%
%ADD15RoundRect,0.500000X-0.875000X-0.500000X0.875000X-0.500000X0.875000X0.500000X-0.875000X0.500000X0*%
%TD*%
%TA.AperFunction,SMDPad,CuDef*%
%ADD16R,1.000000X0.400000*%
%TD*%
%TA.AperFunction,ViaPad*%
%ADD17C,0.600000*%
%TD*%
%TA.AperFunction,Conductor*%
%ADD18C,0.200000*%
%TD*%
G04 APERTURE END LIST*
D10*
%TO.P,R11,1*%
%TO.N,PTT_LED_DRIVE*%
X55200000Y-28000000D03*
%TO.P,R11,2*%
%TO.N,LED_A*%
X56800000Y-28000000D03*
%TD*%
%TO.P,R1,1*%
%TO.N,+3V3*%
X20200000Y-32000000D03*
%TO.P,R1,2*%
%TO.N,MIC_RAW*%
X21800000Y-32000000D03*
%TD*%
D11*
%TO.P,R7,1*%
%TO.N,+3V3*%
X30000000Y-11200000D03*
%TO.P,R7,2*%
%TO.N,PTT_GPIO*%
X30000000Y-12800000D03*
%TD*%
%TO.P,C2,1*%
%TO.N,VREF*%
X40000000Y-18200000D03*
%TO.P,C2,2*%
%TO.N,GND*%
X40000000Y-19800000D03*
%TD*%
D12*
%TO.P,J1,1*%
%TO.N,N/C*%
X7000000Y-21000000D03*
D13*
%TO.P,J1,2*%
X8016000Y-22780000D03*
%TO.P,J1,3*%
%TO.N,GND*%
X9032000Y-21000000D03*
%TO.P,J1,4*%
%TO.N,PTT_RAW*%
X10048000Y-22780000D03*
%TO.P,J1,5*%
%TO.N,GND*%
X11064000Y-21000000D03*
%TO.P,J1,6*%
%TO.N,MIC_RAW*%
X12080000Y-22780000D03*
%TO.P,J1,7*%
%TO.N,GND*%
X13096000Y-21000000D03*
%TO.P,J1,8*%
%TO.N,N/C*%
X14112000Y-22780000D03*
D14*
%TO.P,J1,SH*%
%TO.N,GND*%
X2430000Y-21890000D03*
X18690000Y-21890000D03*
%TD*%
D10*
%TO.P,C1,1*%
%TO.N,MIC_RAW*%
X26200000Y-34000000D03*
%TO.P,C1,2*%
%TO.N,MIC_AC*%
X27800000Y-34000000D03*
%TD*%
D11*
%TO.P,C5,1*%
%TO.N,+3V3*%
X37000000Y-24200000D03*
%TO.P,C5,2*%
%TO.N,GND*%
X37000000Y-25800000D03*
%TD*%
D10*
%TO.P,R13,1*%
%TO.N,MIC_AC*%
X24200000Y-24000000D03*
%TO.P,R13,2*%
%TO.N,VREF*%
X25800000Y-24000000D03*
%TD*%
D15*
%TO.P,U1,1*%
%TO.N,MIC_ADC*%
X46835000Y-4380000D03*
%TO.P,U1,2*%
%TO.N,N/C*%
X46835000Y-6920000D03*
%TO.P,U1,3*%
X46835000Y-9460000D03*
%TO.P,U1,4*%
X46835000Y-12000000D03*
%TO.P,U1,5*%
X46835000Y-14540000D03*
%TO.P,U1,6*%
X46835000Y-17080000D03*
%TO.P,U1,7*%
%TO.N,PTT_GPIO*%
X46835000Y-19620000D03*
%TO.P,U1,8*%
%TO.N,N/C*%
X63000000Y-19620000D03*
%TO.P,U1,9*%
X63000000Y-17080000D03*
%TO.P,U1,10*%
X63000000Y-14540000D03*
%TO.P,U1,11*%
%TO.N,PTT_LED_DRIVE*%
X63000000Y-12000000D03*
%TO.P,U1,12*%
%TO.N,+3V3*%
X63000000Y-9460000D03*
%TO.P,U1,13*%
%TO.N,GND*%
X63000000Y-6920000D03*
%TO.P,U1,14*%
%TO.N,N/C*%
X63000000Y-4380000D03*
%TD*%
D11*
%TO.P,R2,1*%
%TO.N,+3V3*%
X36000000Y-15200000D03*
%TO.P,R2,2*%
%TO.N,VREF*%
X36000000Y-16800000D03*
%TD*%
D10*
%TO.P,R8,1*%
%TO.N,PTT_RAW*%
X21200000Y-10000000D03*
%TO.P,R8,2*%
%TO.N,PTT_GPIO*%
X22800000Y-10000000D03*
%TD*%
%TO.P,R5,1*%
%TO.N,MIC_AMP*%
X26200000Y-19000000D03*
%TO.P,R5,2*%
%TO.N,NINV*%
X27800000Y-19000000D03*
%TD*%
D11*
%TO.P,C4,1*%
%TO.N,PTT_GPIO*%
X25000000Y-12200000D03*
%TO.P,C4,2*%
%TO.N,GND*%
X25000000Y-13800000D03*
%TD*%
%TO.P,R3,1*%
%TO.N,VREF*%
X36000000Y-18200000D03*
%TO.P,R3,2*%
%TO.N,GND*%
X36000000Y-19800000D03*
%TD*%
D10*
%TO.P,R6,1*%
%TO.N,MIC_AMP*%
X37200000Y-11000000D03*
%TO.P,R6,2*%
%TO.N,MIC_ADC*%
X38800000Y-11000000D03*
%TD*%
D16*
%TO.P,U2,1*%
%TO.N,MIC_AMP*%
X29250000Y-21025000D03*
%TO.P,U2,2*%
%TO.N,NINV*%
X29250000Y-21675000D03*
%TO.P,U2,3*%
%TO.N,MIC_AC*%
X29250000Y-22325000D03*
%TO.P,U2,4*%
%TO.N,GND*%
X29250000Y-22975000D03*
%TO.P,U2,5*%
%TO.N,VREF*%
X32750000Y-22975000D03*
%TO.P,U2,6*%
%TO.N,N/C*%
X32750000Y-22325000D03*
%TO.P,U2,7*%
X32750000Y-21675000D03*
%TO.P,U2,8*%
%TO.N,+3V3*%
X32750000Y-21025000D03*
%TD*%
D10*
%TO.P,D1,1*%
%TO.N,LED_A*%
X59200000Y-28000000D03*
%TO.P,D1,2*%
%TO.N,GND*%
X60800000Y-28000000D03*
%TD*%
%TO.P,R4,1*%
%TO.N,NINV*%
X26200000Y-27000000D03*
%TO.P,R4,2*%
%TO.N,VREF*%
X27800000Y-27000000D03*
%TD*%
D11*
%TO.P,C3,1*%
%TO.N,MIC_ADC*%
X42000000Y-10200000D03*
%TO.P,C3,2*%
%TO.N,GND*%
X42000000Y-11800000D03*
%TD*%
D17*
%TO.N,GND*%
X30274800Y-23162700D03*
X34269400Y-20638300D03*
%TD*%
%TO.N,GND*%
D18*
X40000000Y-19800000D02*
X36000000Y-19800000D01*
X13096000Y-21000000D02*
X11064000Y-21000000D01*
X34269400Y-20638300D02*
X35161700Y-20638300D01*
X22390100Y-9221200D02*
X22097500Y-9513800D01*
X35161700Y-20638300D02*
X36000000Y-19800000D01*
X25000000Y-14955100D02*
X18690000Y-21265100D01*
X40000000Y-22800000D02*
X37000000Y-25800000D01*
X60800000Y-28000000D02*
X64696800Y-24103200D01*
X42000000Y-11800000D02*
X39421200Y-9221200D01*
X18690000Y-21265100D02*
X13361100Y-21265100D01*
X30239400Y-23162700D02*
X30274800Y-23162700D01*
X22097500Y-9513800D02*
X22097500Y-10897500D01*
X59995300Y-28804700D02*
X60800000Y-28000000D01*
X64696800Y-8616800D02*
X63000000Y-6920000D01*
X29250000Y-22975000D02*
X30051700Y-22975000D01*
X46004700Y-28804700D02*
X59995300Y-28804700D01*
X40000000Y-22800000D02*
X40000000Y-19800000D01*
X39421200Y-9221200D02*
X22390100Y-9221200D01*
X11064000Y-21000000D02*
X9032000Y-21000000D01*
X40000000Y-22800000D02*
X46004700Y-28804700D01*
X25000000Y-13800000D02*
X25000000Y-14955100D01*
X30051700Y-22975000D02*
X30239400Y-23162700D01*
X18690000Y-21265100D02*
X18690000Y-21890000D01*
X13361100Y-21265100D02*
X13096000Y-21000000D01*
X64696800Y-24103200D02*
X64696800Y-8616800D01*
X22097500Y-10897500D02*
X25000000Y-13800000D01*
%TO.N,+3V3*%
X33550200Y-21025000D02*
X33551700Y-21025000D01*
X40796400Y-18900800D02*
X40697200Y-19000000D01*
X36450400Y-23923700D02*
X33551700Y-21025000D01*
X20200000Y-32000000D02*
X23002800Y-34802800D01*
X40796400Y-17802800D02*
X40796400Y-18900800D01*
X42866500Y-20970900D02*
X51489100Y-20970900D01*
X33550200Y-20506700D02*
X33550200Y-21025000D01*
X32661600Y-27988800D02*
X36450400Y-24200000D01*
X32000000Y-11200000D02*
X36000000Y-15200000D01*
X37000000Y-24200000D02*
X36450400Y-24200000D01*
X51489100Y-20970900D02*
X63000000Y-9460000D01*
X40796400Y-18900800D02*
X42866500Y-20970900D01*
X30000000Y-11200000D02*
X32000000Y-11200000D01*
X28192600Y-34802800D02*
X32661600Y-30333800D01*
X38193600Y-15200000D02*
X40796400Y-17802800D01*
X40697200Y-19000000D02*
X35056900Y-19000000D01*
X36450400Y-24200000D02*
X36450400Y-23923700D01*
X36000000Y-15200000D02*
X38193600Y-15200000D01*
X23002800Y-34802800D02*
X28192600Y-34802800D01*
X32661600Y-30333800D02*
X32661600Y-27988800D01*
X35056900Y-19000000D02*
X33550200Y-20506700D01*
X32750000Y-21025000D02*
X33550200Y-21025000D01*
%TO.N,MIC_RAW*%
X12580000Y-22780000D02*
X12080000Y-22780000D01*
X26200000Y-34000000D02*
X24200000Y-32000000D01*
X24200000Y-32000000D02*
X21800000Y-32000000D01*
X21800000Y-32000000D02*
X12580000Y-22780000D01*
%TO.N,MIC_AC*%
X27000000Y-33200000D02*
X27800000Y-34000000D01*
X24200000Y-24000000D02*
X24462300Y-24000000D01*
X24532200Y-24069900D02*
X26277100Y-22325000D01*
X26277100Y-22325000D02*
X28448300Y-22325000D01*
X24462300Y-24000000D02*
X24532200Y-24069900D01*
X27000000Y-26537700D02*
X27000000Y-33200000D01*
X29250000Y-22325000D02*
X28448300Y-22325000D01*
X24532200Y-24069900D02*
X27000000Y-26537700D01*
%TO.N,VREF*%
X34391100Y-18200000D02*
X31948300Y-20642800D01*
X36000000Y-16800000D02*
X36000000Y-18200000D01*
X27800000Y-27000000D02*
X27800000Y-26000000D01*
X31948300Y-20642800D02*
X31948300Y-22975000D01*
X40000000Y-18200000D02*
X36000000Y-18200000D01*
X32750000Y-22975000D02*
X31948300Y-22975000D01*
X28923300Y-26000000D02*
X31948300Y-22975000D01*
X27800000Y-26000000D02*
X28923300Y-26000000D01*
X36000000Y-18200000D02*
X34391100Y-18200000D01*
X27800000Y-26000000D02*
X25800000Y-24000000D01*
%TO.N,NINV*%
X27800000Y-21026700D02*
X28448300Y-21675000D01*
X27800000Y-19000000D02*
X27800000Y-21026700D01*
X25977100Y-21026700D02*
X27800000Y-21026700D01*
X23470800Y-24459900D02*
X23470800Y-23533000D01*
X26010900Y-27000000D02*
X23470800Y-24459900D01*
X23470800Y-23533000D02*
X25977100Y-21026700D01*
X26200000Y-27000000D02*
X26010900Y-27000000D01*
X29250000Y-21675000D02*
X28448300Y-21675000D01*
%TO.N,MIC_AMP*%
X30777500Y-15689700D02*
X30777500Y-12372500D01*
X29585700Y-11997000D02*
X29203200Y-11614500D01*
X29250000Y-21025000D02*
X28448300Y-21025000D01*
X29517500Y-10462100D02*
X36662100Y-10462100D01*
X26200000Y-19000000D02*
X26989000Y-18211000D01*
X26989000Y-18211000D02*
X28256200Y-18211000D01*
X29203200Y-10776400D02*
X29517500Y-10462100D01*
X30402000Y-11997000D02*
X29585700Y-11997000D01*
X28448300Y-20523300D02*
X28448300Y-21025000D01*
X29203200Y-11614500D02*
X29203200Y-10776400D01*
X28548600Y-20423000D02*
X28448300Y-20523300D01*
X28256200Y-18211000D02*
X28548600Y-18503400D01*
X28548600Y-18503400D02*
X28548600Y-20423000D01*
X36662100Y-10462100D02*
X37200000Y-11000000D01*
X30777500Y-12372500D02*
X30402000Y-11997000D01*
X28256200Y-18211000D02*
X30777500Y-15689700D01*
%TO.N,MIC_ADC*%
X42000000Y-9215000D02*
X46835000Y-4380000D01*
X42826300Y-12194700D02*
X42462500Y-12558500D01*
X40358500Y-12558500D02*
X38800000Y-11000000D01*
X42000000Y-10200000D02*
X42826300Y-11026300D01*
X42000000Y-10200000D02*
X42000000Y-9215000D01*
X42462500Y-12558500D02*
X40358500Y-12558500D01*
X42826300Y-11026300D02*
X42826300Y-12194700D01*
%TO.N,PTT_RAW*%
X6564200Y-23892500D02*
X8935500Y-23892500D01*
X21200000Y-10000000D02*
X9591700Y-10000000D01*
X2033300Y-17558400D02*
X2033300Y-19361600D01*
X8935500Y-23892500D02*
X10048000Y-22780000D01*
X9591700Y-10000000D02*
X2033300Y-17558400D01*
X2033300Y-19361600D02*
X6564200Y-23892500D01*
%TO.N,PTT_GPIO*%
X38000000Y-10523200D02*
X38000000Y-11452000D01*
X28801500Y-12200000D02*
X28801500Y-10597800D01*
X29342400Y-10056900D02*
X37533700Y-10056900D01*
X28801500Y-10597800D02*
X29342400Y-10056900D01*
X46168000Y-19620000D02*
X46835000Y-19620000D01*
X29401500Y-12800000D02*
X28801500Y-12200000D01*
X25000000Y-12200000D02*
X28801500Y-12200000D01*
X38000000Y-11452000D02*
X46168000Y-19620000D01*
X25000000Y-12200000D02*
X22800000Y-10000000D01*
X30000000Y-12800000D02*
X29401500Y-12800000D01*
X37533700Y-10056900D02*
X38000000Y-10523200D01*
%TO.N,PTT_LED_DRIVE*%
X55200000Y-19800000D02*
X63000000Y-12000000D01*
X55200000Y-28000000D02*
X55200000Y-19800000D01*
%TO.N,LED_A*%
X59200000Y-28000000D02*
X56800000Y-28000000D01*
%TD*%
M02*
